<svg t="1773715394908" class="icon" viewBox="0 0 1024 1024" version="1.1" xmlns="http://www.w3.org/2000/svg">
  <path d="M128 416h768v192H128z" fill="#1afa29"></path>
  <path d="M896 640H128a32 32 0 0 1-32-32v-192a32 32 0 0 1 32-32h768a32 32 0 0 1 32 32v192a32 32 0 0 1-32 32zM160 576h704v-128H160z" fill="#1afa29"></path>
  <path d="M416 896V128h192v768z" fill="#1afa29"></path>
  <path d="M608 928h-192a32 32 0 0 1-32-32V128a32 32 0 0 1 32-32h192a32 32 0 0 1 32 32v768a32 32 0 0 1-32 32z m-160-64h128V160h-128z" fill="#1afa29"></path>
</svg>
