<svg t="1773716416419" class="icon" viewBox="0 0 1024 1024" version="1.1" xmlns="http://www.w3.org/2000/svg">
  <path d="M450.026667 429.653333v194.986667l-0.106667 10.154667 0.085333 1.578666 0.021334 263.04a42.666667 42.666667 0 1 1-85.333334 0v-199.082666a40.704 40.704 0 0 0-40.533333-37.333334c-21.482667 0-40.576 12.885333-48.853333 32.170667L218.24 908.16a42.666667 42.666667 0 1 1-82.410667-22.101333L194.026667 668.8V429.653333H128a42.666667 42.666667 0 1 1 0-85.333333h771.413333a42.666667 42.666667 0 1 1 0 85.333333h-85.952v469.76a42.666667 42.666667 0 1 1-85.333333 0v-192.64a45.333333 45.333333 0 0 0-45.290667-42.837333 59.221333 59.221333 0 0 0-56.064 40.149333l-0.746666 2.410667-0.341334-0.021333-54.037333 201.706666a42.666667 42.666667 0 0 1-82.432-22.101333l68.309333-254.954667-0.042666-6.4-0.021334-195.072h-107.434666z m-128-320.853333a96 96 0 1 1 0 192 96 96 0 0 1 0-192z m363.456 0a96 96 0 1 1 0 192 96 96 0 0 1 0-192z" fill="#1cd728"></path>
</svg>
