<svg xmlns="http://www.w3.org/2000/svg" viewBox="0 0 100 100">
  <path fill="#5C82E1" d="M40 0l2 10q-1 1-1 3c2-1 4-2 7 0-1 2-5 2-7 1v3c12 0 16 11 21 11-8 2-10-7-22-7s-14 9-22 7c5 0 9-11 21-11V14c-2 1-6 1-7-1 3-2 5-1 7 0q0-2-1-3m2 14a1 1 0 010 21 1 1 0 010-21m0 3a1 1 0 000 15 1 1 0 000-15m0 2a1 1 0 010 11 1 1 0 010-11M4 35c7 2 8 5 8 7s0 7 3 12S27 65 30 66s4 1 4 3v6c-3-1 0-2-6-4s-11-5-15-9-4-7-5-11 0-9-1-11-1-2-3-5m72 0c-2 3-2 3-3 5s0 7-1 11-2 7-6 11-8 7-14 9-3 3-6 4V69c0-2 1-2 4-3s12-7 15-12 3-8 3-11 1-6 8-8M59 46c-6 1-10 5-12 8-3-2-5 4 2 1l5 5q-4-1-8 1c-2-3-5 1-2 2q-1 1-1 3V77q0 2 1 3c-1 1-2 1-3 3 1 0 5-2 9 1-5 4-6 2-9 2v2c2 0 4 0 7 2-2 3-6 1-7 1q0 2 1 3l-2 6-2-6q1-1 1-3c-1 0-5 2-7-1 3-2 5-2 7-2V86c-3 0-4 2-9-1 5-4 7-2 9-2-1-2-2-2-3-3q1-1 1-3V66q0-2-1-3c3-1 0-5-2-2q-4-2-8-1l5-5c7 3 5-3 2-1-2-3-6-7-12-8 3-12-3-11-21-13q21-1 28-5-3 5-2 13a1 1 0 002 2q4 5 11 8 0 1-1 2 2 1 2 2 0-1 2-2-1-1-1-2 7-3 11-8a1 1 0 002-2q1-8-2-13 12 4 28 5c-18 2-24 1-21 13"/>
  <path fill="#5C82E1" d="M14 29l2 4-2 4-2-4m54-4 2 4-2 4-2-4Z"/>
</svg>
