<svg xmlns="http://www.w3.org/2000/svg" viewBox="0 0 100 100">
  <path fill="#08A0DC" d="M58 4c-2 12-2 21-1 29s2 10 4 15 2 4 3 10c-5-6-11-3-15-1-3-3-3-5-4-8 2-2 2-4 2-6 0-5-5-7-9-9 3-1 5-2 6-5s2-6 4-11 4-8 10-14m5 37 6 2 3 7 6 3 5 12 1 1c0 1-2 4-3 5-2-1-4-3-6-5l-3 1-5-2V58ZM79 76c2 0 3 0 4 1l3 3c2 2 2 2 5 2 4 5 4 5 9 8l-1 1H82c-1-4-3-7-6-10ZM67 72l5-1c2 2 3 3 4 5l-3 5c3 3 5 6 6 10H63c-1-1-2-3-2-4Zm-5-1c-1 2-2 4-3 5-1 2-1 5-1 7-3 6-7 10-13 13 2-3 4-9 4-13s-1-6-2-10-1-6-1-7c3 2 5 2 7-1 1 2 2 3 4 4l3-1ZM26 86c0-4 0-8 2-11l7-8c1 3 2 6 3 10s3 6 5 10c-1 2-2 3-3 4H22M0 91c4-2 7-5 10-8l1-3c2-2 6-4 9-5l4 1-1 10-4 5ZM16 70l7-17 4-1 5-9 3-2 3 5c-3 5-4 12-4 18L24 71ZM43 48c1 5 2 7 5 10-2 2-2 2-3 5 0 11 0 11-2 15 0-4-1-7-2-10s-3-7-3-12 1-6 2-9c2-1 4-3 4-6 2 3 1 5-1 7m13 8q2-1 4 1c0 3-1 7-2 10-2-1-3-2-4-3 2-2 2-2 2-8"/>
</svg>
