<svg xmlns="http://www.w3.org/2000/svg" viewBox="0 0 100 100">
  <path fill="#6B39DE" d="M17 67c-4-4-9-13-8-30C6 50 7 58 9 65c4 3 3 9 3 14M41 61l-3-2-10 6c0-2 2-6 4-9-6-6-6-13-4-20L7 25l7 8c4 4 3 6 3 8-1 6 1 15 6 21L16 77l15-9 6 3 6 9Zm2 22c-6-1-12-4-16-8L16 80c7-1 7-1 10 1 4 3 7 4 13 6 3 1 3 2 5 4Zm30-8c-4 4-10 7-16 8l-1 8c2-2 2-3 5-4 6-2 9-3 13-6 3-2 3-2 10-1ZM91 37c1 17-3 25-8 30l5 12c0-5-1-11 3-14 2-7 3-15 0-28M72 36c2 8 1 15-4 20 2 3 4 7 4 9L62 59l-3 2-2 19 6-9 6-3 15 9-7-15c5-6 7-15 6-21 0-2-1-4 3-8l7-8ZM23 21l7 5-2-10L18 7Zm49-5-2 10 7-5L82 7ZM50 0c-1 5-1 5-4 7l2 3V25l-2 2 2 2c-1 4-3 4-4 4s-2-1-3-3-1-5 1-9c-5 6-7 12-6 13 3 3 6 6 7 10-1-1-2-1-3-1 2 3 4 5 5 10 2 13 2 30 2 47 4-4 5-6 6-22s0-19 4-31c-1 0-3-1-4-2s-1-4 1-5 5 0 5 2c1-2 5-7 5-9s-1-6-4-9c2 3 0 8-1 9s-3 1-4 0-2-1-3-4l2-2-2-2V10l2-3c-3-2-3-2-4-7"/>
</svg>
