<svg xmlns="http://www.w3.org/2000/svg" viewBox="0 0 100 100">
  <path fill="#1F9F0E" d="M43 0l7 12-4 7v8l2 3q-3 3-3 11l2 2q-3 2-4 7-1-5-4-7l2-2q0-8-3-11l2-3V19l-4-7m7-4-2 4 2 4 2-4m4.6 5c0 6.4 4.4 9.5 10.4 14.5S69 39 69 41s2 3 3.4 2.4 3.9 2.2 7.9 5.8l2.7-.9 3 2.1-3 2.2-2.7-1.2c-2.3 1.8-5.6 4.5-7.1 4.3s-2.6.7-2.4 2.1S68 61.9 66 64s-2 4 0 7c-5-2-2-7-5-11q3-3 4.6-8.4L71 50.5 65.6 49C64 39 57.7 34.4 47.7 26M66.6 73.4l5.1 6L74 91 67 81M49 35q9 6 8 21c11 24-2 31-12 44q1-14-2-14t-2 14C31 87 18 80 29 56q-1-15 8-21-1 6 0 11 3 3 6 7 3-4 6-7 1-5 0-11M31 57q1 6 6 9-1-6-6-9m24 0q-5 3-6 9 5-3 6-9M31 81q5-2 6-7-5 2-6 7m24 0q-1-5-6-7 1 5 6 7M43 72q1 2 1 2.5 11C46 69 44 71 59 69.5 44 68 46 70 44.5 57Q44 65 43 67q-1-2-1.5-10C40 70 42 68 27 69.5 42 71 40 69 41.5 83Q42 74 43 72M36.4 17l1.9 9C28.3 34.4 22 39 20.4 49L15 50.5l5.4 1.1Q22 56 25 59c-3 4 0 9-5 12 2-3 2-5 0-7s-5-4.8-4.8-6.3-.9-2.2-2.4-2S8 53.2 5.7 51.3L3 52.6 0 50.4l3-2.1 2.7 1.1c4-3.8 6.5-6.6 7.9-6S17 43 17 41s3-4.5 9-9.5S36.4 23.4 36.4 17m-17 56.4L19 81 12 91l2.3-11.6"/>
</svg>
