<svg xmlns="http://www.w3.org/2000/svg" viewBox="0 0 1000 1000">
  <path fill="#11B5B2" d="M500 0l48 273c-17 19-28 37-28 50s2 20 28 44c-25 21-30 34-31 53 3 70 4 154 28 194l-29-10V890c1 11 9 13 9 21s-7 8-10 19c-5 24 3 25-15 70-18-45-11-46-15-70-2-10-10-11-10-19s9-10 9-21V604l-29 9c25-39 25-123 28-193 0-20-6-32-31-53 23-22 28-31 28-43s-10-32-27-51ZM420 100c10 50-28 97-40 140s-5 58 9 68 40 2 47-1c-6 13-26 23-34 35s-7 23 0 38 20 35 56 71c-50-19-88-31-117-88 10-10 18-17 22-27-9-6-20 6-28 10-12-30-6-76 5-96s10-24 30-50 42-64 50-100m160 0c10 40 30 70 50 100s20 30 30 50 17 65 5 96c-11-8-21-15-28-11-1 9 14 19 23 28-27 53-67 70-116 87 33-35 48-56 54-70s7-26-1-38-24-21-33-35c6 3 31 10 45 2s25-27 11-69-50-90-40-140M820 254C722 425 653 581 617 556s89-148 203-302M803 395C721 546 624 739 592 716S703 533 803 395M772 557C713 663 599 878 570 858S701 654 772 557M181 256C317 435 415 530 384 556S289 446 181 256m16 139c72 104 247 297 211 321S259 503 197 395m31 162c72 96 233 281 203 301S286 659 228 557"/>
</svg>
