<svg xmlns="http://www.w3.org/2000/svg" viewBox="0 0 1000 1000">
  <path fill="#32BF0F" d="M231 151c50 13 65 4 95-11s74-26 89-27c40-19 68-50 85-70 14 19 46 50 82 69 31 4 85 22 112 37s63 6 74 2c-10 12-38 28-68 24s-40-15-79-17-53 4-69 11l-52-61-52 61c-21-9-24-12-68-11s-70 19-95 18-44-15-54-25m249 84c-82-38-161-37-223-15s-68 62-114-20c-5 62 19 63-4 100-11-4-16-11-23-21-16 29-63 15-82 10 32 41 26 65 21 77 30 10 33 14 34 19 4 19-65 15-86 19 19 6 31 12 45 25s19 15 17 46 3 85 25 121 28 39 48 61-15 53-36 65c49 3 55-20 89-18 40 7-7 33-19 39 43 35 15 21 30 76 34-24 43-33 84-30 0-20-10-25-10-43 50 8 39 47 80 63-3-9-5-21 2-35 14-27 23 3 121-40-20-15-39-33-54-51-137 58-283-54-290-181s60-180 106-210 134-40 194-8c13-17 29-34 45-49m377-35c4 54-19 72 5 99 9-2 16-10 22-21 17 25 26 22 82 11-32 45-27 60-21 77-13 8-33 9-33 19s11 19 85 18c-52 20-65 42-62 68s0 79-24 124-53 52-55 73 10 35 42 54c-30 9-59-18-89-17s-8 27 20 37c-30 27-26 10-29 77-63-40-62-30-86-30-1-17 11-30 11-46-57 17-20 28-81 67 12-31-3-50-31-51S448 738 391 578c-11-44-29-42-85-37 24-30 85-38 86-70-11 5-18 7-33 9-7-27-30-50-54-73 57-11 55-8 74-35 11 14 18 18 28 24 2-24-7-52-31-90 17 6 21 5 40 15s9-6 61-52 134-68 196-63 103 26 113 33 37 31 71-39M650 264a10 10 90 0014 431A10 10 90 00650 264m-92 46c29 29 12 8 66-4-28 43-35 86-30 88s12-8 27-22c19 38 49 25 74 35-44 46-48 49-53 75-18 0-33-14-35-11s7 20 37 37 31 16 50 33c-113-16-58 24-120 110-24-11-45-29-56-48-5-9 2-11 11-29s53-108-15-216c5-19 33-43 44-48M500 890l54-63c106 52 114-40 208 23-84-13-56 18-178 41-25 13-55 31-84 68-28-35-49-48-83-68-112-21-106-57-177-41 90-64 104 30 207-23Z"/>
</svg>
