<svg xmlns="http://www.w3.org/2000/svg" viewBox="-40 38 1080 925" preserveAspectRatio="xMidYMid meet">
  <path
    fill="#D4D116"
    d="M680 460c-27 37-22 56-20 90l20 270 20-270c2-35 7-53-20-90m-360 0c-27 37-22 56-20 90l20 270 20-270c2-35 7-53-20-90m330-28c-19 0-35-3-40-16-5 13-12 16-38 16s-55-3-55-41 24-44 33-45 44-3 36 35c34-9 50 12 52 26 53-33 76-17 134 25Zm-420 0c45-33 71-62 128-26 5-21 28-32 52-25-5-43 36-35 40-34s30 6 30 44-28 41-52 41-34-3-38-16c-5 13-21 16-40 16ZM0 426c76 93 131 89 186 58s39-41 84-41h80c19 0 35 7 40 20 5-13 14-18 38-18s43 8 43 17-16 18-27 23c47 19 43 37 25 43 12 151 18 368 31 395 13-27 21-245 30-395-17-6-21-24 26-43-11-5-30-14-30-23s20-17 46-17 33 5 38 18c5-13 21-20 40-20h80c45 0 29 9 84 41s110 35 186-58c-123 71-174-28-205-52s-38-35-100-65-100-66-102-83-9-25-16-23-18 13-10 53-18 67-27 72c-28-34-25-111-40-141-15 30-12 107-40 141-9-5-35-30-27-71s-3-52-10-54-14 5-16 22-39 53-102 84-60 31-100 65S123 497 0 426M675 78q-11 95-42 124 25 27 42 83 17-56 42-83-31-29-42-124M325 78q-11 95-42 124 25 27 42 83 17-56 42-83-31-29-42-124"
  />
</svg>
