<svg xmlns="http://www.w3.org/2000/svg" viewBox="115.32 -40 769.39 1080" preserveAspectRatio="xMidYMid meet">
  <path fill="#0F68B3" d="M500 0c110 120 50 330 50 470s118 172 20 190 0 290-70 340c-70-50 30-320-70-340s20-50 20-190S390 120 500 0m0 60c-80 140 50 470-60 560 30 10 50 20 60 40 10-20 30-30 60-40-110-90 20-420-60-560m120 80c-3 65 35 68 51 101s-7 61 20 59 75-34 119-49 38 18 26 30-37 96-41 158-1 45-20 60 14 28 22 31 21 9 9 50-15 41-27 44-27-8-34 8 20 19 10 40-50 74-73 85-34 11-15 36 54 74 53 95c-41-25-76-73-88-86s-21-9-26 0 5 13-18 35-37 30-37 13-7-121 4-139 25-32 55-39 49-48 47-73 18-16 28-28 19-33 9-47-24-17-21-26 20-6 20-37 13-81 25-102-1-19-46 0-57 38-58 25 8-40-14-68-9-31-11-90 25-83 31-86m55 262c-8 57-56 87-71 90 6-28 21-65 71-90M380 140c7 4 32 27 30 86s10 61-12 90-11 57-13 68-13-7-56-25-58-22-48 0 25 67 25 102 17 26 20 37-12 13-21 26-3 35 10 47 29 4 27 28 18 67 48 73 44 24 54 39 4 121 4 139-16 5-37-13-13-26-19-35-14-13-25 0-61 72-88 86c-1-25 37-70 54-95s9-21-15-36-63-61-74-85 18-21 10-40-24-4-37-8-11-3-24-44 4-47 10-50 34-13 25-26-24-5-23-43-15-147-40-180 4-36 24-31 84 45 116 50 8-31 22-58 56-42 53-102M324 401c57 31 66 71 72 92-23-8-65-42-72-92"/>
</svg>
