<svg t="1774253947834" class="icon" viewBox="0 0 1024 1024" version="1.1" xmlns="http://www.w3.org/2000/svg" width="200" height="200">
  <path d="M147.240421 909.285053A92.941474 92.941474 0 0 1 53.894737 816.720842V746.442105a321.670737 321.670737 0 0 1 206.767158-299.735579 188.631579 188.631579 0 0 1-73.593263-149.423158 190.221474 190.221474 0 0 1 191.002947-189.413052 190.787368 190.787368 0 0 1 184.373895 139.776 164.648421 164.648421 0 0 1 140.341894-78.147369 163.759158 163.759158 0 0 1 164.378948 163.085474 162.115368 162.115368 0 0 1-56.589474 123.176421q8.084211 3.368421 15.845053 7.27579a273.003789 273.003789 0 0 1 151.875368 244.11621v48.505263a92.941474 92.941474 0 0 1-93.318737 92.564211h-188.281263a93.318737 93.318737 0 0 1-87.794526 61.089684z m-31.12421-162.950737v70.386526a30.962526 30.962526 0 0 0 31.12421 30.854737h461.662316a30.989474 30.989474 0 0 0 31.12421-30.854737V746.442105a260.850526 260.850526 0 0 0-261.955368-259.745684A260.850526 260.850526 0 0 0 116.116211 746.442105z m768.862315 40.151579a30.962526 30.962526 0 0 0 31.097263-30.854737v-48.505263a212.453053 212.453053 0 0 0-213.288421-211.509895 213.665684 213.665684 0 0 0-96.229052 22.689684 319.137684 319.137684 0 0 1 95.663158 228.001684v40.151579zM554.684632 476.725895a275.482947 275.482947 0 0 1 40.286315-21.045895 163.247158 163.247158 0 0 1-47.831579-70.332632 190.437053 190.437053 0 0 1-51.685052 61.251369 324.742737 324.742737 0 0 1 59.230316 30.154105z m148.210526-42.792421a101.807158 101.807158 0 0 0 102.157474-101.376 101.780211 101.780211 0 0 0-102.211369-101.349053 101.807158 101.807158 0 0 0-102.238316 101.349053 101.807158 101.807158 0 0 0 102.130527 101.376h0.188631zM249.290105 297.175579a128.215579 128.215579 0 0 0 126.652632 127.703579h2.101895a128.215579 128.215579 0 0 0 128.808421-127.703579 128.269474 128.269474 0 0 0-128.808421-127.730526 128.242526 128.242526 0 0 0-128.781474 127.757473z" fill="#858EA1"></path>
</svg>
